<svg width="27" height="26" viewBox="0 0 27 26" fill="none" xmlns="http://www.w3.org/2000/svg">
<path d="M16.2126 23.9886C21.4427 23.6424 25.6078 19.4173 25.9503 14.1134C26.0166 13.0758 26.0166 12.0008 25.9503 10.9633C25.6078 5.66065 21.4427 1.43804 16.2126 1.08928C14.4061 0.970239 12.5938 0.970239 10.7874 1.08928C5.55728 1.43679 1.39217 5.66065 1.04966 10.9645C0.983446 12.0135 0.983446 13.0656 1.04966 14.1146C1.17467 16.0459 2.02844 17.8347 3.03471 19.3448C3.61848 20.401 3.23347 21.7198 2.6247 22.8736C2.18719 23.7049 1.96719 24.1199 2.14344 24.4199C2.31845 24.7199 2.71221 24.7299 3.49848 24.7486C5.05477 24.7861 6.10354 24.3461 6.93607 23.7324C7.40733 23.3836 7.64359 23.2099 7.80609 23.1899C7.96859 23.1699 8.28985 23.3024 8.92987 23.5649C9.50488 23.8024 10.1737 23.9486 10.7862 23.9899C12.5675 24.1074 14.4288 24.1074 16.2138 23.9899" stroke="#ACACAC" stroke-width="2" stroke-linecap="round" stroke-linejoin="round"/>
<path d="M7.87476 16.6259L10.1773 9.71825C10.2351 9.54586 10.3456 9.39599 10.4932 9.28981C10.6408 9.18363 10.818 9.1265 10.9998 9.1265C11.1817 9.1265 11.3589 9.18363 11.5065 9.28981C11.6541 9.39599 11.7646 9.54586 11.8224 9.71825L14.1249 16.6259M17.875 9.12573V16.6259M9.12479 14.1259H12.8749" stroke="#ACACAC" stroke-width="2" stroke-linecap="round" stroke-linejoin="round"/>
</svg>
