<svg width="25" height="26" viewBox="0 0 25 26" fill="none" xmlns="http://www.w3.org/2000/svg">
<path d="M23.6898 0.623954L24.3755 1.3096C25.3203 2.25557 25.1773 3.93251 24.0536 5.05512L9.91404 19.1946L5.33297 20.8704C4.75772 21.0819 4.19758 20.8077 4.08369 20.2603C4.0452 20.0617 4.06332 19.8564 4.13598 19.6676L5.8443 15.047L19.9443 0.945861C21.0681 -0.176747 22.745 -0.322012 23.6898 0.623954ZM9.29696 2.03012C9.44957 2.03012 9.60069 2.06018 9.74168 2.11858C9.88268 2.17698 10.0108 2.26258 10.1187 2.3705C10.2266 2.47841 10.3122 2.60652 10.3706 2.74751C10.429 2.88851 10.4591 3.03963 10.4591 3.19224C10.4591 3.34485 10.429 3.49597 10.3706 3.63696C10.3122 3.77796 10.2266 3.90607 10.1187 4.01398C10.0108 4.12189 9.88268 4.2075 9.74168 4.2659C9.60069 4.3243 9.44957 4.35436 9.29696 4.35436H4.64848C4.03205 4.35436 3.44087 4.59923 3.00499 5.03511C2.56911 5.47099 2.32424 6.06217 2.32424 6.6786V20.624C2.32424 21.2405 2.56911 21.8316 3.00499 22.2675C3.44087 22.7034 4.03205 22.9483 4.64848 22.9483H18.5939C19.2103 22.9483 19.8015 22.7034 20.2374 22.2675C20.6733 21.8316 20.9182 21.2405 20.9182 20.624V15.9756C20.9182 15.6673 21.0406 15.3718 21.2585 15.1538C21.4765 14.9359 21.7721 14.8134 22.0803 14.8134C22.3885 14.8134 22.6841 14.9359 22.902 15.1538C23.12 15.3718 23.2424 15.6673 23.2424 15.9756V20.624C23.2424 21.8569 22.7526 23.0392 21.8809 23.911C21.0091 24.7828 19.8268 25.2725 18.5939 25.2725H4.64848C3.41563 25.2725 2.23327 24.7828 1.36151 23.911C0.489749 23.0392 0 21.8569 0 20.624V6.6786C0 5.44574 0.489749 4.26339 1.36151 3.39163C2.23327 2.51987 3.41563 2.03012 4.64848 2.03012H9.29696Z" fill="white"/>
</svg>
