<svg width="25" height="25" viewBox="0 0 25 25" fill="none" xmlns="http://www.w3.org/2000/svg">
<rect x="19" y="11" width="2" height="12" fill="#CBDAE9"/>
<path d="M18.25 3.875H22.5625C22.9437 3.875 23.3094 4.02645 23.579 4.29603C23.8486 4.56562 24 4.93125 24 5.3125V21.125C24 21.8875 23.6971 22.6188 23.1579 23.1579C22.6188 23.6971 21.7625 24 21 24C20.2375 24 19.6312 23.6971 19.0921 23.1579C18.5529 22.6188 18.25 21.8875 18.25 21.125V2.4375C18.25 2.05625 18.0985 1.69062 17.829 1.42103C17.5594 1.15145 17.1937 1 16.8125 1H2.4375C2.05625 1 1.69062 1.15145 1.42103 1.42103C1.15145 1.69062 1 2.05625 1 2.4375V19.6875C1 20.8312 1.45435 21.9281 2.2631 22.7369C3.07185 23.5456 4.16875 24 5.3125 24H21M6.75 6.75H12.5ZM6.75 12.5H12.5ZM6.75 18.25H12.5Z" fill="#CBDAE9"/>
<path d="M18.25 3.875H22.5625C22.9437 3.875 23.3094 4.02645 23.579 4.29603C23.8486 4.56562 24 4.93125 24 5.3125V21.125C24 21.8875 23.6971 22.6188 23.1579 23.1579C22.6188 23.6971 21.7625 24 21 24M21 24C20.2375 24 19.6312 23.6971 19.0921 23.1579C18.5529 22.6188 18.25 21.8875 18.25 21.125V2.4375C18.25 2.05625 18.0985 1.69062 17.829 1.42103C17.5594 1.15145 17.1937 1 16.8125 1H2.4375C2.05625 1 1.69062 1.15145 1.42103 1.42103C1.15145 1.69062 1 2.05625 1 2.4375V19.6875C1 20.8312 1.45435 21.9281 2.2631 22.7369C3.07185 23.5456 4.16875 24 5.3125 24H21ZM6.75 6.75H12.5M6.75 12.5H12.5M6.75 18.25H12.5" stroke="#1976D2" stroke-width="2" stroke-linecap="round" stroke-linejoin="round"/>
</svg>
