<svg width="25" height="25" viewBox="0 0 25 25" fill="none" xmlns="http://www.w3.org/2000/svg">
<path d="M22.5154 9.99973C22.5154 9.66821 22.3837 9.35027 22.1492 9.11585C21.9148 8.88143 21.5969 8.74973 21.2654 8.74973C20.9338 8.74973 20.6159 8.88143 20.3815 9.11585C20.1471 9.35027 20.0154 9.66821 20.0154 9.99973H22.5154ZM5.01536 9.99973C5.01536 9.66821 4.88366 9.35027 4.64924 9.11585C4.41482 8.88143 4.09688 8.74973 3.76536 8.74973C3.43384 8.74973 3.1159 8.88143 2.88148 9.11585C2.64706 9.35027 2.51536 9.66821 2.51536 9.99973H5.01536ZM22.8816 13.3835C23.1174 13.6112 23.4331 13.7372 23.7609 13.7343C24.0886 13.7315 24.4021 13.6 24.6339 13.3683C24.8656 13.1365 24.9971 12.823 25 12.4952C25.0028 12.1675 24.8768 11.8517 24.6491 11.616L22.8816 13.3835ZM12.5154 1.24973L13.3991 0.365983C13.1647 0.131644 12.8468 0 12.5154 0C12.1839 0 11.866 0.131644 11.6316 0.365983L12.5154 1.24973ZM0.38161 11.616C0.262222 11.7313 0.166995 11.8692 0.101484 12.0217C0.0359723 12.1742 0.00148947 12.3383 4.71959e-05 12.5042C-0.00139507 12.6702 0.0302321 12.8348 0.0930832 12.9884C0.155934 13.142 0.248751 13.2816 0.366117 13.399C0.483482 13.5163 0.623047 13.6092 0.776668 13.672C0.930288 13.7349 1.09489 13.7665 1.26086 13.765C1.42684 13.7636 1.59086 13.7291 1.74337 13.6636C1.89587 13.5981 2.0338 13.5029 2.14911 13.3835L0.38161 11.616ZM6.26536 24.9997H18.7654V22.4997H6.26536V24.9997ZM22.5154 21.2497V9.99973H20.0154V21.2497H22.5154ZM5.01536 21.2497V9.99973H2.51536V21.2497H5.01536ZM24.6491 11.616L13.3991 0.365983L11.6316 2.13348L22.8816 13.3835L24.6491 11.616ZM11.6316 0.365983L0.38161 11.616L2.14911 13.3835L13.3991 2.13348L11.6316 0.365983ZM18.7654 24.9997C19.7599 24.9997 20.7138 24.6046 21.417 23.9014C22.1203 23.1981 22.5154 22.2443 22.5154 21.2497H20.0154C20.0154 21.5813 19.8837 21.8992 19.6492 22.1336C19.4148 22.368 19.0969 22.4997 18.7654 22.4997V24.9997ZM6.26536 22.4997C5.93384 22.4997 5.6159 22.368 5.38148 22.1336C5.14706 21.8992 5.01536 21.5813 5.01536 21.2497H2.51536C2.51536 22.2443 2.91045 23.1981 3.61371 23.9014C4.31697 24.6046 5.2708 24.9997 6.26536 24.9997V22.4997Z" fill="#ACACAC"/>
</svg>
