<svg width="24" height="24" viewBox="0 0 24 24" fill="none" xmlns="http://www.w3.org/2000/svg">
<path d="M20 12.503V7C20 6.73478 19.8946 6.48043 19.7071 6.29289C19.5196 6.10536 19.2652 6 19 6H5C4.73478 6 4.48043 6.10536 4.29289 6.29289C4.10536 6.48043 4 6.73478 4 7V17C4 17.2652 4.10536 17.5196 4.29289 17.7071C4.48043 17.8946 4.73478 18 5 18H8.504L12.894 10.678C13.1283 10.2874 13.4484 9.95533 13.8302 9.70689C14.2119 9.45844 14.6452 9.30018 15.0972 9.24409C15.5492 9.188 16.008 9.23556 16.4389 9.38316C16.8697 9.53077 17.2613 9.77454 17.584 10.096L20 12.503ZM20 15.326L16.172 11.512C16.0644 11.405 15.9338 11.3238 15.7902 11.2747C15.6465 11.2256 15.4936 11.2099 15.343 11.2287C15.1924 11.2475 15.048 11.3003 14.9208 11.3832C14.7937 11.4661 14.687 11.5768 14.609 11.707L10.836 18H19C19.2652 18 19.5196 17.8946 19.7071 17.7071C19.8946 17.5196 20 17.2652 20 17V15.326ZM5 4H19C19.7956 4 20.5587 4.31607 21.1213 4.87868C21.6839 5.44129 22 6.20435 22 7V17C22 17.7956 21.6839 18.5587 21.1213 19.1213C20.5587 19.6839 19.7956 20 19 20H5C4.20435 20 3.44129 19.6839 2.87868 19.1213C2.31607 18.5587 2 17.7956 2 17V7C2 6.20435 2.31607 5.44129 2.87868 4.87868C3.44129 4.31607 4.20435 4 5 4ZM8 13C7.20435 13 6.44129 12.6839 5.87868 12.1213C5.31607 11.5587 5 10.7956 5 10C5 9.20435 5.31607 8.44129 5.87868 7.87868C6.44129 7.31607 7.20435 7 8 7C8.79565 7 9.55871 7.31607 10.1213 7.87868C10.6839 8.44129 11 9.20435 11 10C11 10.7956 10.6839 11.5587 10.1213 12.1213C9.55871 12.6839 8.79565 13 8 13ZM8 11C8.26522 11 8.51957 10.8946 8.70711 10.7071C8.89464 10.5196 9 10.2652 9 10C9 9.73478 8.89464 9.48043 8.70711 9.29289C8.51957 9.10536 8.26522 9 8 9C7.73478 9 7.48043 9.10536 7.29289 9.29289C7.10536 9.48043 7 9.73478 7 10C7 10.2652 7.10536 10.5196 7.29289 10.7071C7.48043 10.8946 7.73478 11 8 11Z" fill="#CCCCCC"/>
</svg>
